<svg width="630" height="630" viewBox="0 0 630 630" fill="none" xmlns="http://www.w3.org/2000/svg">
<rect width="630" height="630" fill="#FF908F"/>
<path d="M385.385 417L386.993 426.287C388.431 434.592 395.275 441.102 404.006 442.47L413.769 444L404.006 445.53C395.275 446.898 388.431 453.408 386.993 461.713L385.385 471L383.777 461.713C382.338 453.408 375.495 446.898 366.763 445.53L357 444L366.763 442.47C375.495 441.102 382.338 434.592 383.777 426.286L385.385 417Z" fill="#FEFCEB"/>
<path d="M148.838 454.94C148.838 465.647 141.976 471 128.252 471H98.176C97.6407 471 97.1783 470.805 96.789 470.416C96.3997 470.027 96.205 469.564 96.205 469.029V421.871C96.205 421.336 96.3997 420.873 96.789 420.484C97.1783 420.095 97.6407 419.9 98.176 419.9H127.522C134.433 419.9 139.518 421.165 142.779 423.696C146.088 426.178 147.743 429.95 147.743 435.011V435.23C147.743 437.566 147.11 439.561 145.845 441.216C144.58 442.871 143.266 443.917 141.903 444.355C143.801 444.939 145.431 446.229 146.794 448.224C148.157 450.171 148.838 452.409 148.838 454.94ZM115.185 451.29V458.444H125.77C126.889 458.444 127.717 458.079 128.252 457.349C128.836 456.57 129.128 455.719 129.128 454.794V454.721C129.128 453.796 128.812 452.993 128.179 452.312C127.595 451.631 126.792 451.29 125.77 451.29H115.185ZM127.157 438.077C127.692 437.347 127.96 436.544 127.96 435.668C127.96 434.792 127.692 434.038 127.157 433.405C126.67 432.772 125.94 432.456 124.967 432.456H115.185V439.099H124.967C125.94 439.099 126.67 438.758 127.157 438.077ZM210.202 440.997V449.903C210.202 454.916 208.986 459.101 206.552 462.459C204.119 465.817 200.931 468.202 196.989 469.613C193.047 471.024 188.4 471.73 183.046 471.73C177.693 471.73 173.045 471.024 169.103 469.613C165.161 468.202 161.974 465.817 159.54 462.459C157.107 459.101 155.89 454.867 155.89 449.757V441.143C155.89 433.794 158.397 428.295 163.409 424.645C168.471 420.995 175.016 419.17 183.046 419.17C191.076 419.17 197.598 420.995 202.61 424.645C207.672 428.295 210.202 433.746 210.202 440.997ZM175.6 439.61V451.29C175.6 453.285 176.257 454.818 177.571 455.889C178.934 456.96 180.759 457.495 183.046 457.495C185.334 457.495 187.134 456.96 188.448 455.889C189.811 454.77 190.492 453.212 190.492 451.217V439.683C190.492 437.688 189.811 436.155 188.448 435.084C187.134 433.965 185.334 433.405 183.046 433.405C180.759 433.405 178.934 433.94 177.571 435.011C176.257 436.082 175.6 437.615 175.6 439.61ZM272.881 454.94C272.881 465.647 266.019 471 252.295 471H222.219C221.684 471 221.221 470.805 220.832 470.416C220.443 470.027 220.248 469.564 220.248 469.029V421.871C220.248 421.336 220.443 420.873 220.832 420.484C221.221 420.095 221.684 419.9 222.219 419.9H251.565C258.476 419.9 263.561 421.165 266.822 423.696C270.131 426.178 271.786 429.95 271.786 435.011V435.23C271.786 437.566 271.153 439.561 269.888 441.216C268.623 442.871 267.309 443.917 265.946 444.355C267.844 444.939 269.474 446.229 270.837 448.224C272.2 450.171 272.881 452.409 272.881 454.94ZM239.228 451.29V458.444H249.813C250.932 458.444 251.76 458.079 252.295 457.349C252.879 456.57 253.171 455.719 253.171 454.794V454.721C253.171 453.796 252.855 452.993 252.222 452.312C251.638 451.631 250.835 451.29 249.813 451.29H239.228ZM251.2 438.077C251.735 437.347 252.003 436.544 252.003 435.668C252.003 434.792 251.735 434.038 251.2 433.405C250.713 432.772 249.983 432.456 249.01 432.456H239.228V439.099H249.01C249.983 439.099 250.713 438.758 251.2 438.077ZM293.292 471H279.495C279.057 471 278.668 470.854 278.327 470.562C278.035 470.221 277.889 469.905 277.889 469.613C277.889 469.321 277.914 469.102 277.962 468.956L293.876 422.309C294.314 420.703 295.409 419.9 297.161 419.9H317.455C319.207 419.9 320.302 420.703 320.74 422.309L336.654 468.956C336.703 469.102 336.727 469.321 336.727 469.613C336.727 469.905 336.557 470.221 336.216 470.562C335.924 470.854 335.559 471 335.121 471H321.324C319.767 471 318.672 470.173 318.039 468.518L316.214 463.408H298.402L296.577 468.518C295.945 470.173 294.85 471 293.292 471ZM312.491 449.173L307.308 433.989L302.125 449.173H312.491ZM95.84 493.9H146.21C146.745 493.9 147.208 494.095 147.597 494.484C147.986 494.873 148.181 495.336 148.181 495.871V507.624C148.181 508.159 147.986 508.622 147.597 509.011C147.208 509.4 146.745 509.595 146.21 509.595H130.515V543.029C130.515 543.564 130.32 544.027 129.931 544.416C129.542 544.805 129.079 545 128.544 545H113.506C112.971 545 112.508 544.805 112.119 544.416C111.73 544.027 111.535 543.564 111.535 543.029V509.595H95.84C95.3047 509.595 94.8423 509.4 94.453 509.011C94.0637 508.622 93.869 508.159 93.869 507.624V495.871C93.869 495.336 94.0637 494.873 94.453 494.484C94.8423 494.095 95.3047 493.9 95.84 493.9ZM212.027 542.737C212.125 542.932 212.173 543.199 212.173 543.54C212.173 543.881 212.003 544.221 211.662 544.562C211.37 544.854 211.005 545 210.567 545H193.996C192.536 545 191.514 544.392 190.93 543.175L184.506 528.721H178.374V543.029C178.374 543.564 178.18 544.027 177.79 544.416C177.401 544.805 176.939 545 176.403 545H160.635C160.1 545 159.638 544.805 159.248 544.416C158.859 544.027 158.664 543.564 158.664 543.029V495.871C158.664 495.336 158.859 494.873 159.248 494.484C159.638 494.095 160.1 493.9 160.635 493.9H189.032C195.7 493.9 200.98 495.482 204.873 498.645C208.767 501.808 210.713 506.115 210.713 511.566C210.713 518.185 208.158 522.978 203.048 525.947L212.027 542.737ZM178.374 507.478V515.216H187.499C188.57 515.216 189.397 514.875 189.981 514.194C190.565 513.464 190.857 512.564 190.857 511.493C190.857 510.422 190.565 509.498 189.981 508.719C189.446 507.892 188.619 507.478 187.499 507.478H178.374ZM231.271 545H217.474C217.036 545 216.647 544.854 216.306 544.562C216.014 544.221 215.868 543.905 215.868 543.613C215.868 543.321 215.892 543.102 215.941 542.956L231.855 496.309C232.293 494.703 233.388 493.9 235.14 493.9H255.434C257.186 493.9 258.281 494.703 258.719 496.309L274.633 542.956C274.682 543.102 274.706 543.321 274.706 543.613C274.706 543.905 274.536 544.221 274.195 544.562C273.903 544.854 273.538 545 273.1 545H259.303C257.746 545 256.651 544.173 256.018 542.518L254.193 537.408H236.381L234.556 542.518C233.923 544.173 232.828 545 231.271 545ZM250.47 523.173L245.287 507.989L240.104 523.173H250.47ZM300.373 513.61V525.29C300.373 527.285 301.03 528.818 302.344 529.889C303.707 530.96 305.459 531.495 307.6 531.495C309.79 531.495 311.372 531.154 312.345 530.473C313.319 529.792 314.122 528.794 314.754 527.48C315.436 526.166 316.312 525.509 317.382 525.509H333.15C333.588 525.509 333.953 525.679 334.245 526.02C334.586 526.312 334.756 526.677 334.756 527.115C334.756 531.641 332.615 535.778 328.332 539.525C326.191 541.374 323.344 542.883 319.791 544.051C316.239 545.17 312.053 545.73 307.235 545.73C302.417 545.73 298.013 545 294.022 543.54C290.08 542.031 286.868 539.598 284.386 536.24C281.904 532.833 280.663 528.672 280.663 523.757V515.143C280.663 510.228 281.904 506.067 284.386 502.66C289.058 496.333 296.869 493.17 307.819 493.17C312.248 493.17 316.239 493.754 319.791 494.922C323.344 496.041 326.191 497.526 328.332 499.375C332.615 503.122 334.756 507.259 334.756 511.785C334.756 512.223 334.586 512.612 334.245 512.953C333.953 513.245 333.588 513.391 333.15 513.391H317.382C316.312 513.391 315.436 512.734 314.754 511.42C314.122 510.106 313.319 509.108 312.345 508.427C311.372 507.746 309.79 507.405 307.6 507.405C305.459 507.405 303.707 507.94 302.344 509.011C301.03 510.082 300.373 511.615 300.373 513.61ZM399.26 542.445C399.455 542.737 399.552 543.078 399.552 543.467C399.552 543.856 399.382 544.221 399.041 544.562C398.749 544.854 398.384 545 397.946 545H379.112C377.993 545 377.117 544.611 376.484 543.832L363.782 528.137V543.029C363.782 543.564 363.587 544.027 363.198 544.416C362.809 544.805 362.346 545 361.811 545H346.773C346.238 545 345.775 544.805 345.386 544.416C344.997 544.027 344.802 543.564 344.802 543.029V495.871C344.802 495.336 344.997 494.873 345.386 494.484C345.775 494.095 346.238 493.9 346.773 493.9H361.811C362.346 493.9 362.809 494.095 363.198 494.484C363.587 494.873 363.782 495.336 363.782 495.871V509.595L375.316 495.141C376.046 494.314 376.946 493.9 378.017 493.9H395.61C396.048 493.9 396.413 494.07 396.705 494.411C397.046 494.703 397.216 495.068 397.216 495.506C397.216 495.895 397.094 496.236 396.851 496.528L379.55 517.625L399.26 542.445ZM425.657 530.765H454.784C455.32 530.765 455.782 530.96 456.171 531.349C456.561 531.738 456.755 532.201 456.755 532.736V543.029C456.755 543.564 456.561 544.027 456.171 544.416C455.782 544.805 455.32 545 454.784 545H408.648C408.113 545 407.651 544.805 407.261 544.416C406.872 544.027 406.677 543.564 406.677 543.029V495.871C406.677 495.336 406.872 494.873 407.261 494.484C407.651 494.095 408.113 493.9 408.648 493.9H454.054C454.59 493.9 455.052 494.095 455.441 494.484C455.831 494.873 456.025 495.336 456.025 495.871V506.164C456.025 506.699 455.831 507.162 455.441 507.551C455.052 507.94 454.59 508.135 454.054 508.135H425.657V512.734H450.039C450.575 512.734 451.037 512.929 451.426 513.318C451.816 513.707 452.01 514.17 452.01 514.705V524.195C452.01 524.73 451.816 525.193 451.426 525.582C451.037 525.971 450.575 526.166 450.039 526.166H425.657V530.765ZM522.135 542.737C522.232 542.932 522.281 543.199 522.281 543.54C522.281 543.881 522.111 544.221 521.77 544.562C521.478 544.854 521.113 545 520.675 545H504.104C502.644 545 501.622 544.392 501.038 543.175L494.614 528.721H488.482V543.029C488.482 543.564 488.287 544.027 487.898 544.416C487.509 544.805 487.046 545 486.511 545H470.743C470.208 545 469.745 544.805 469.356 544.416C468.967 544.027 468.772 543.564 468.772 543.029V495.871C468.772 495.336 468.967 494.873 469.356 494.484C469.745 494.095 470.208 493.9 470.743 493.9H499.14C505.807 493.9 511.088 495.482 514.981 498.645C518.874 501.808 520.821 506.115 520.821 511.566C520.821 518.185 518.266 522.978 513.156 525.947L522.135 542.737ZM488.482 507.478V515.216H497.607C498.678 515.216 499.505 514.875 500.089 514.194C500.673 513.464 500.965 512.564 500.965 511.493C500.965 510.422 500.673 509.498 500.089 508.719C499.554 507.892 498.726 507.478 497.607 507.478H488.482Z" fill="#FEFCEB"/>
<path d="M458 243.5C458 322.753 393.753 387 314.5 387C235.247 387 171 322.753 171 243.5C171 164.247 235.247 100 314.5 100C393.753 100 458 164.247 458 243.5Z" fill="#222222" stroke="#222222" stroke-width="4"/>
<g clip-path="url(#clip0_201_356)">
<path d="M251.919 185.127L257.123 181.401C257.551 181.092 257.407 180.415 256.89 180.307L250.621 179.019C250.473 178.986 250.338 178.9 250.248 178.778L246.521 173.577C246.211 173.149 245.536 173.292 245.427 173.81L244.137 180.076C244.104 180.225 244.017 180.358 243.895 180.449L238.691 184.175C238.263 184.485 238.406 185.161 238.924 185.269L245.193 186.557C245.341 186.589 245.475 186.676 245.566 186.799L249.293 191.998C249.603 192.427 250.278 192.284 250.387 191.765L251.677 185.5C251.71 185.351 251.791 185.218 251.919 185.127Z" fill="#222222"/>
<path d="M229.393 210.145C229.418 210.262 229.432 210.381 229.433 210.5C229.435 210.62 229.425 210.738 229.403 210.856C229.382 210.973 229.349 211.088 229.304 211.199C229.26 211.31 229.205 211.416 229.139 211.516C229.074 211.617 229 211.709 228.916 211.796C228.833 211.881 228.742 211.958 228.643 212.025C228.544 212.094 228.441 212.15 228.33 212.198C228.22 212.245 228.107 212.281 227.989 212.306C227.872 212.331 227.754 212.345 227.635 212.346C227.515 212.347 227.396 212.338 227.279 212.315C227.161 212.294 227.047 212.261 226.935 212.217C226.824 212.172 226.719 212.118 226.618 212.052C226.518 211.987 226.425 211.913 226.339 211.829C226.253 211.746 226.176 211.655 226.109 211.556C226.041 211.457 225.984 211.354 225.936 211.243C225.889 211.134 225.853 211.02 225.828 210.903C225.803 210.786 225.79 210.668 225.789 210.548C225.787 210.429 225.797 210.31 225.819 210.192C225.841 210.075 225.874 209.961 225.918 209.849C225.962 209.738 226.017 209.633 226.083 209.532C226.148 209.432 226.222 209.339 226.305 209.253C226.389 209.168 226.48 209.091 226.579 209.023C226.677 208.955 226.781 208.897 226.892 208.85C227.001 208.803 227.115 208.767 227.232 208.742C227.35 208.717 227.467 208.704 227.587 208.702C227.707 208.701 227.825 208.711 227.943 208.733C228.061 208.755 228.176 208.788 228.286 208.832C228.398 208.877 228.503 208.931 228.604 208.996C228.704 209.061 228.798 209.136 228.883 209.219C228.969 209.303 229.046 209.394 229.113 209.492C229.181 209.59 229.238 209.695 229.285 209.804C229.333 209.915 229.369 210.028 229.393 210.145Z" fill="#222222"/>
<mask id="mask0_201_356" style="mask-type:luminance" maskUnits="userSpaceOnUse" x="368" y="166" width="14" height="15">
<path d="M368.193 169.065L379.449 166.672L381.965 178.513L370.71 180.905L368.193 169.065Z" fill="white"/>
</mask>
<g mask="url(#mask0_201_356)">
<path d="M377.796 175.191L380.969 172.918C381.23 172.727 381.143 172.316 380.828 172.254L377.005 171.468C376.91 171.449 376.829 171.395 376.781 171.323L374.507 168.151C374.316 167.89 373.904 167.977 373.842 168.292L373.055 172.115C373.037 172.208 372.983 172.29 372.91 172.338L369.737 174.611C369.475 174.802 369.563 175.214 369.878 175.275L373.702 176.062C373.795 176.08 373.877 176.134 373.925 176.207L376.199 179.378C376.389 179.639 376.801 179.552 376.863 179.237L377.652 175.421C377.671 175.327 377.724 175.245 377.796 175.191Z" fill="#222222"/>
</g>
<path d="M345.902 167.983C345.934 168.132 345.958 168.282 345.975 168.435C345.992 168.586 346.002 168.739 346.003 168.892C346.006 169.045 346 169.198 345.987 169.35C345.974 169.502 345.953 169.654 345.925 169.804C345.898 169.954 345.863 170.102 345.82 170.249C345.777 170.396 345.728 170.541 345.671 170.683C345.614 170.825 345.551 170.964 345.481 171.099C345.41 171.235 345.333 171.367 345.25 171.495C345.167 171.624 345.078 171.748 344.982 171.867C344.887 171.986 344.785 172.101 344.679 172.21C344.572 172.32 344.46 172.424 344.343 172.522C344.226 172.621 344.105 172.713 343.979 172.799C343.852 172.887 343.723 172.967 343.589 173.04C343.455 173.114 343.318 173.182 343.177 173.242C343.036 173.303 342.893 173.356 342.748 173.402C342.602 173.448 342.454 173.488 342.304 173.519C342.155 173.551 342.004 173.575 341.852 173.593C341.7 173.609 341.547 173.619 341.394 173.621C341.242 173.623 341.089 173.617 340.936 173.604C340.784 173.592 340.633 173.571 340.482 173.544C340.332 173.515 340.183 173.48 340.036 173.438C339.89 173.395 339.745 173.346 339.603 173.289C339.461 173.233 339.322 173.169 339.186 173.099C339.05 173.029 338.918 172.952 338.79 172.868C338.662 172.785 338.538 172.695 338.418 172.6C338.299 172.506 338.184 172.404 338.075 172.298C337.965 172.191 337.861 172.079 337.763 171.962C337.664 171.845 337.571 171.723 337.485 171.598C337.399 171.472 337.318 171.342 337.244 171.208C337.171 171.074 337.103 170.937 337.043 170.797C336.983 170.656 336.929 170.513 336.883 170.368C336.836 170.221 336.798 170.074 336.766 169.924C336.734 169.775 336.709 169.625 336.693 169.472C336.676 169.321 336.666 169.168 336.665 169.015C336.662 168.862 336.668 168.709 336.68 168.557C336.694 168.405 336.714 168.253 336.742 168.104C336.77 167.953 336.805 167.805 336.848 167.658C336.89 167.511 336.94 167.366 336.997 167.225C337.053 167.082 337.117 166.944 337.187 166.808C337.258 166.672 337.334 166.54 337.418 166.412C337.501 166.284 337.59 166.16 337.686 166.04C337.781 165.921 337.883 165.806 337.989 165.697C338.096 165.587 338.208 165.483 338.325 165.385C338.441 165.286 338.563 165.194 338.689 165.108C338.816 165.02 338.945 164.94 339.079 164.867C339.213 164.793 339.35 164.725 339.491 164.665C339.631 164.605 339.775 164.551 339.92 164.506C340.066 164.459 340.214 164.419 340.363 164.388C340.513 164.356 340.664 164.332 340.816 164.315C340.968 164.298 341.12 164.289 341.274 164.286C341.426 164.284 341.579 164.29 341.731 164.303C341.884 164.315 342.035 164.336 342.186 164.364C342.336 164.392 342.485 164.427 342.631 164.469C342.778 164.512 342.923 164.561 343.065 164.618C343.207 164.674 343.346 164.738 343.481 164.808C343.618 164.879 343.75 164.956 343.878 165.039C344.006 165.122 344.13 165.212 344.25 165.307C344.368 165.403 344.484 165.503 344.593 165.61C344.702 165.716 344.806 165.828 344.905 165.945C345.004 166.062 345.096 166.184 345.182 166.309C345.269 166.435 345.35 166.565 345.424 166.699C345.497 166.833 345.564 166.97 345.624 167.11C345.685 167.251 345.739 167.394 345.785 167.54C345.831 167.686 345.87 167.833 345.902 167.983Z" fill="#222222"/>
<path d="M349.559 182.169L311.129 190.338L304.962 161.328C304.116 157.347 300.188 154.798 296.204 155.644L287.474 157.5C283.49 158.347 280.938 162.274 281.784 166.255L287.952 195.271L249.521 203.439C241.645 205.113 236.594 212.879 238.268 220.757L239.167 224.985C240.001 228.911 243.877 231.426 247.806 230.591L250.075 230.109L285.234 332.426C287.088 337.825 292.705 341.004 298.293 339.817L360.475 326.6C366.063 325.412 369.901 320.222 369.399 314.536L359.902 206.764L362.171 206.282C366.1 205.447 368.617 201.573 367.783 197.647L366.884 193.419C365.204 185.542 357.435 180.495 349.559 182.169ZM286.395 165.275C286.085 163.813 286.99 162.42 288.453 162.109L297.183 160.253C298.647 159.942 300.041 160.847 300.351 162.309L306.519 191.324L292.563 194.29L286.395 165.275ZM359.112 253.469C359.202 256.192 357.909 258.663 355.752 260.278C346.365 266.84 334.809 267.979 321.45 263.748C331.478 250.673 341.711 244.458 351.911 245.469C356.053 245.879 358.974 249.407 359.112 253.469ZM316.602 262.344C313.09 261.357 309.726 260.62 306.563 260.156L298.012 219.926L311.968 216.96L320.549 257.33C319.227 258.877 317.909 260.57 316.602 262.344ZM301.63 259.624C284.351 258.352 273.066 264.181 267.975 267.709L254.717 229.122L293.393 220.901L301.624 259.625L301.63 259.624ZM364.708 314.955C365.003 318.277 362.761 321.303 359.502 321.996L297.315 335.214C294.056 335.907 290.778 334.054 289.696 330.899L269.549 272.275C273.699 269.094 289.625 259.068 316.922 267.293C317.65 267.484 318.387 267.719 319.131 267.985C329.444 271.4 337.957 271.51 344.787 270.058C350.566 268.83 355.138 266.485 358.575 264.065C359.149 263.654 359.605 263.139 360.093 262.65L364.708 314.955ZM358.378 243.157C356.629 241.91 354.625 241.006 352.38 240.784C342.83 239.841 333.482 243.959 324.453 253.026L316.578 215.973L355.254 207.752L358.378 243.157ZM363.166 198.628C363.461 200.017 362.575 201.38 361.186 201.675L246.826 225.983C245.437 226.278 244.072 225.387 243.778 224.005L242.879 219.777C241.746 214.443 245.163 209.182 250.501 208.048L350.534 186.785C355.87 185.651 361.133 189.066 362.267 194.4L363.166 198.628Z" fill="#222222"/>
<path d="M294.373 281.77C289.012 282.91 285.579 288.193 286.718 293.551C287.856 298.903 293.141 302.333 298.501 301.193C303.856 300.055 307.289 294.772 306.152 289.42C305.013 284.062 299.728 280.632 294.373 281.77ZM297.521 296.579C294.705 297.177 291.925 295.373 291.328 292.565C290.73 289.75 292.536 286.971 295.351 286.373C298.167 285.774 300.942 287.58 301.54 290.394C302.138 293.208 300.331 295.981 297.521 296.579Z" fill="#222222"/>
<path d="M341.848 279.417C336.487 280.557 333.054 285.841 334.191 291.193C335.33 296.551 340.615 299.981 345.976 298.841C351.332 297.703 354.765 292.42 353.626 287.062C352.488 281.71 347.203 278.279 341.848 279.417ZM344.997 294.233C342.181 294.831 339.401 293.027 338.803 290.212C338.204 287.398 340.012 284.624 342.827 284.026C345.643 283.427 348.418 285.234 349.015 288.042C349.613 290.856 347.807 293.635 344.997 294.233Z" fill="#222222"/>
<path d="M319.169 298.361C313.814 299.499 310.381 304.782 311.518 310.134C312.656 315.486 317.941 318.917 323.296 317.779C328.652 316.64 332.083 311.357 330.946 306.005C329.808 300.652 324.524 297.222 319.169 298.361ZM322.318 313.176C319.502 313.775 316.728 311.968 316.131 309.16C315.534 306.353 317.34 303.573 320.149 302.976C322.959 302.378 325.74 304.183 326.337 306.991C326.934 309.799 325.128 312.579 322.318 313.176Z" fill="#222222"/>
<path d="M378.542 174.906L382.734 172.134C383.08 171.903 382.977 171.418 382.567 171.348L377.61 170.52C377.492 170.499 377.387 170.439 377.317 170.352L374.442 166.66C374.203 166.356 373.664 166.47 373.569 166.845L372.443 171.388C372.416 171.495 372.344 171.593 372.246 171.66L368.054 174.433C367.708 174.664 367.811 175.149 368.221 175.219L373.178 176.047C373.295 176.068 373.401 176.128 373.47 176.215L376.345 179.907C376.585 180.212 377.124 180.098 377.218 179.722L378.344 175.179C378.372 175.072 378.439 174.975 378.542 174.906Z" fill="#222222"/>
</g>
<path d="M458 229.5C458 308.753 393.753 373 314.5 373C235.247 373 171 308.753 171 229.5C171 150.247 235.247 86 314.5 86C393.753 86 458 150.247 458 229.5Z" fill="#FEFCEB" stroke="#222222" stroke-width="4"/>
<g clip-path="url(#clip1_201_356)">
<path d="M251.919 171.127L257.123 167.401C257.551 167.092 257.407 166.415 256.89 166.307L250.621 165.019C250.473 164.986 250.338 164.9 250.248 164.778L246.521 159.577C246.211 159.149 245.536 159.292 245.427 159.81L244.137 166.076C244.104 166.225 244.017 166.358 243.895 166.449L238.691 170.175C238.263 170.485 238.406 171.161 238.924 171.269L245.193 172.557C245.341 172.589 245.475 172.676 245.566 172.799L249.293 177.998C249.603 178.427 250.278 178.284 250.387 177.765L251.677 171.5C251.71 171.351 251.791 171.218 251.919 171.127Z" fill="#222222"/>
<path d="M229.393 196.145C229.418 196.262 229.432 196.381 229.433 196.5C229.435 196.62 229.425 196.738 229.403 196.856C229.382 196.973 229.349 197.088 229.304 197.199C229.26 197.31 229.205 197.416 229.139 197.516C229.074 197.617 229 197.709 228.916 197.796C228.833 197.881 228.742 197.958 228.643 198.025C228.544 198.094 228.441 198.15 228.33 198.198C228.22 198.245 228.107 198.281 227.989 198.306C227.872 198.331 227.754 198.345 227.635 198.346C227.515 198.347 227.396 198.338 227.279 198.315C227.161 198.294 227.047 198.261 226.935 198.217C226.824 198.172 226.719 198.118 226.618 198.052C226.518 197.987 226.425 197.913 226.339 197.829C226.253 197.746 226.176 197.655 226.109 197.556C226.041 197.457 225.984 197.354 225.936 197.243C225.889 197.134 225.853 197.02 225.828 196.903C225.803 196.786 225.79 196.668 225.789 196.548C225.787 196.429 225.797 196.31 225.819 196.192C225.841 196.075 225.874 195.961 225.918 195.849C225.962 195.738 226.017 195.633 226.083 195.532C226.148 195.432 226.222 195.339 226.305 195.253C226.389 195.168 226.48 195.091 226.579 195.023C226.677 194.955 226.781 194.897 226.892 194.85C227.001 194.803 227.115 194.767 227.232 194.742C227.35 194.717 227.467 194.704 227.587 194.702C227.707 194.701 227.825 194.711 227.943 194.733C228.061 194.755 228.176 194.788 228.286 194.832C228.398 194.877 228.503 194.931 228.604 194.996C228.704 195.061 228.798 195.136 228.883 195.219C228.969 195.303 229.046 195.394 229.113 195.492C229.181 195.59 229.238 195.695 229.285 195.804C229.333 195.915 229.369 196.028 229.393 196.145Z" fill="#222222"/>
<mask id="mask1_201_356" style="mask-type:luminance" maskUnits="userSpaceOnUse" x="368" y="152" width="14" height="15">
<path d="M368.193 155.065L379.449 152.672L381.965 164.513L370.71 166.905L368.193 155.065Z" fill="white"/>
</mask>
<g mask="url(#mask1_201_356)">
<path d="M377.796 161.191L380.969 158.918C381.23 158.727 381.143 158.316 380.828 158.254L377.005 157.468C376.91 157.449 376.829 157.395 376.781 157.323L374.507 154.151C374.316 153.89 373.904 153.977 373.842 154.292L373.055 158.115C373.037 158.208 372.983 158.29 372.91 158.338L369.737 160.611C369.475 160.802 369.563 161.214 369.878 161.275L373.702 162.062C373.795 162.08 373.877 162.134 373.925 162.207L376.199 165.378C376.389 165.639 376.801 165.552 376.863 165.237L377.652 161.421C377.671 161.327 377.724 161.245 377.796 161.191Z" fill="#222222"/>
</g>
<path d="M345.902 153.983C345.934 154.132 345.958 154.282 345.975 154.435C345.992 154.586 346.002 154.739 346.003 154.892C346.006 155.045 346 155.198 345.987 155.35C345.974 155.502 345.953 155.654 345.925 155.804C345.898 155.954 345.863 156.102 345.82 156.249C345.777 156.396 345.728 156.541 345.671 156.683C345.614 156.825 345.551 156.964 345.481 157.099C345.41 157.235 345.333 157.367 345.25 157.495C345.167 157.624 345.078 157.748 344.982 157.867C344.887 157.986 344.785 158.101 344.679 158.21C344.572 158.32 344.46 158.424 344.343 158.522C344.226 158.621 344.105 158.713 343.979 158.799C343.852 158.887 343.723 158.967 343.589 159.04C343.455 159.114 343.318 159.182 343.177 159.242C343.036 159.303 342.893 159.356 342.748 159.402C342.602 159.448 342.454 159.488 342.304 159.519C342.155 159.551 342.004 159.575 341.852 159.593C341.7 159.609 341.547 159.619 341.394 159.621C341.242 159.623 341.089 159.617 340.936 159.604C340.784 159.592 340.633 159.571 340.482 159.544C340.332 159.515 340.183 159.48 340.036 159.438C339.89 159.395 339.745 159.346 339.603 159.289C339.461 159.233 339.322 159.169 339.186 159.099C339.05 159.029 338.918 158.952 338.79 158.868C338.662 158.785 338.538 158.695 338.418 158.6C338.299 158.506 338.184 158.404 338.075 158.298C337.965 158.191 337.861 158.079 337.763 157.962C337.664 157.845 337.571 157.723 337.485 157.598C337.399 157.472 337.318 157.342 337.244 157.208C337.171 157.074 337.103 156.937 337.043 156.797C336.983 156.656 336.929 156.513 336.883 156.368C336.836 156.221 336.798 156.074 336.766 155.924C336.734 155.775 336.709 155.625 336.693 155.472C336.676 155.321 336.666 155.168 336.665 155.015C336.662 154.862 336.668 154.709 336.68 154.557C336.694 154.405 336.714 154.253 336.742 154.104C336.77 153.953 336.805 153.805 336.848 153.658C336.89 153.511 336.94 153.366 336.997 153.225C337.053 153.082 337.117 152.944 337.187 152.808C337.258 152.672 337.334 152.54 337.418 152.412C337.501 152.284 337.59 152.16 337.686 152.04C337.781 151.921 337.883 151.806 337.989 151.697C338.096 151.587 338.208 151.483 338.325 151.385C338.441 151.286 338.563 151.194 338.689 151.108C338.816 151.02 338.945 150.94 339.079 150.867C339.213 150.793 339.35 150.725 339.491 150.665C339.631 150.605 339.775 150.551 339.92 150.506C340.066 150.459 340.214 150.419 340.363 150.388C340.513 150.356 340.664 150.332 340.816 150.315C340.968 150.298 341.12 150.289 341.274 150.286C341.426 150.284 341.579 150.29 341.731 150.303C341.884 150.315 342.035 150.336 342.186 150.364C342.336 150.392 342.485 150.427 342.631 150.469C342.778 150.512 342.923 150.561 343.065 150.618C343.207 150.674 343.346 150.738 343.481 150.808C343.618 150.879 343.75 150.956 343.878 151.039C344.006 151.122 344.13 151.212 344.25 151.307C344.368 151.403 344.484 151.503 344.593 151.61C344.702 151.716 344.806 151.828 344.905 151.945C345.004 152.062 345.096 152.184 345.182 152.309C345.269 152.435 345.35 152.565 345.424 152.699C345.497 152.833 345.564 152.97 345.624 153.11C345.685 153.251 345.739 153.394 345.785 153.54C345.831 153.686 345.87 153.833 345.902 153.983Z" fill="#222222"/>
<path d="M349.559 168.169L311.129 176.338L304.962 147.328C304.116 143.347 300.188 140.798 296.204 141.644L287.474 143.5C283.49 144.347 280.938 148.274 281.784 152.255L287.952 181.271L249.521 189.439C241.645 191.113 236.594 198.879 238.268 206.757L239.167 210.985C240.001 214.911 243.877 217.426 247.806 216.591L250.075 216.109L285.234 318.426C287.088 323.825 292.705 327.004 298.293 325.817L360.475 312.6C366.063 311.412 369.901 306.222 369.399 300.536L359.902 192.764L362.171 192.282C366.1 191.447 368.617 187.573 367.783 183.647L366.884 179.419C365.204 171.542 357.435 166.495 349.559 168.169ZM286.395 151.275C286.085 149.813 286.99 148.42 288.453 148.109L297.183 146.253C298.647 145.942 300.041 146.847 300.351 148.309L306.519 177.324L292.563 180.29L286.395 151.275ZM359.112 239.469C359.202 242.192 357.909 244.663 355.752 246.278C346.365 252.84 334.809 253.979 321.45 249.748C331.478 236.673 341.711 230.458 351.911 231.469C356.053 231.879 358.974 235.407 359.112 239.469ZM316.602 248.344C313.09 247.357 309.726 246.62 306.563 246.156L298.012 205.926L311.968 202.96L320.549 243.33C319.227 244.877 317.909 246.57 316.602 248.344ZM301.63 245.624C284.351 244.352 273.066 250.181 267.975 253.709L254.717 215.122L293.393 206.901L301.624 245.625L301.63 245.624ZM364.708 300.955C365.003 304.277 362.761 307.303 359.502 307.996L297.315 321.214C294.056 321.907 290.778 320.054 289.696 316.899L269.549 258.275C273.699 255.094 289.625 245.068 316.922 253.293C317.65 253.484 318.387 253.719 319.131 253.985C329.444 257.4 337.957 257.51 344.787 256.058C350.566 254.83 355.138 252.485 358.575 250.065C359.149 249.654 359.605 249.139 360.093 248.65L364.708 300.955ZM358.378 229.157C356.629 227.91 354.625 227.006 352.38 226.784C342.83 225.841 333.482 229.959 324.453 239.026L316.578 201.973L355.254 193.752L358.378 229.157ZM363.166 184.628C363.461 186.017 362.575 187.38 361.186 187.675L246.826 211.983C245.437 212.278 244.072 211.387 243.778 210.005L242.879 205.777C241.746 200.443 245.163 195.182 250.501 194.048L350.534 172.785C355.87 171.651 361.133 175.066 362.267 180.4L363.166 184.628Z" fill="#222222"/>
<path d="M294.373 267.77C289.012 268.91 285.579 274.193 286.718 279.551C287.856 284.903 293.141 288.333 298.501 287.193C303.856 286.055 307.289 280.772 306.152 275.42C305.013 270.062 299.728 266.632 294.373 267.77ZM297.521 282.579C294.705 283.177 291.925 281.373 291.328 278.565C290.73 275.75 292.536 272.971 295.351 272.373C298.167 271.774 300.942 273.58 301.54 276.394C302.138 279.208 300.331 281.981 297.521 282.579Z" fill="#222222"/>
<path d="M341.848 265.417C336.487 266.557 333.054 271.841 334.191 277.193C335.33 282.551 340.615 285.981 345.976 284.841C351.332 283.703 354.765 278.42 353.626 273.062C352.488 267.71 347.203 264.279 341.848 265.417ZM344.997 280.233C342.181 280.831 339.401 279.027 338.803 276.212C338.204 273.398 340.012 270.624 342.827 270.026C345.643 269.427 348.418 271.234 349.015 274.042C349.613 276.856 347.807 279.635 344.997 280.233Z" fill="#222222"/>
<path d="M319.169 284.361C313.814 285.499 310.381 290.782 311.518 296.134C312.656 301.486 317.941 304.917 323.296 303.779C328.652 302.64 332.083 297.357 330.946 292.005C329.808 286.652 324.524 283.222 319.169 284.361ZM322.318 299.176C319.502 299.775 316.728 297.968 316.131 295.16C315.534 292.353 317.34 289.573 320.149 288.976C322.959 288.378 325.74 290.183 326.337 292.991C326.934 295.799 325.128 298.579 322.318 299.176Z" fill="#222222"/>
<path d="M378.542 160.906L382.734 158.134C383.08 157.903 382.977 157.418 382.567 157.348L377.61 156.52C377.492 156.499 377.387 156.439 377.317 156.352L374.442 152.66C374.203 152.356 373.664 152.47 373.569 152.845L372.443 157.388C372.416 157.495 372.344 157.593 372.246 157.66L368.054 160.433C367.708 160.664 367.811 161.149 368.221 161.219L373.178 162.047C373.295 162.068 373.401 162.128 373.47 162.215L376.345 165.907C376.585 166.212 377.124 166.098 377.218 165.722L378.344 161.179C378.372 161.072 378.439 160.975 378.542 160.906Z" fill="#222222"/>
</g>
<defs>
<clipPath id="clip0_201_356">
<rect width="185" height="185" fill="white" transform="translate(205 172.464) rotate(-12)"/>
</clipPath>
<clipPath id="clip1_201_356">
<rect width="185" height="185" fill="white" transform="translate(205 158.464) rotate(-12)"/>
</clipPath>
</defs>
</svg>
