<svg width="89" height="89" viewBox="0 0 89 89" fill="none" xmlns="http://www.w3.org/2000/svg">
<rect width="89" height="89" fill="#BABDDA"/>
<circle cx="44" cy="44" r="34.5" stroke="#222222"/>
<path d="M23.7935 57L26.143 32.099H31.619L30.694 41.867H39.1115L40.0365 32.099H45.457L43.163 57H37.687L38.575 47.232H30.1575L29.2695 57H23.7935ZM57.2528 57.6475C55.2918 57.6475 53.6021 57.1603 52.1838 56.186C50.7778 55.2117 49.7479 53.7563 49.0943 51.82C48.4406 49.8713 48.2556 47.4602 48.5393 44.5865C48.8353 41.7005 49.4889 39.2893 50.5003 37.353C51.5116 35.4167 52.8004 33.9613 54.3668 32.987C55.9454 32.0127 57.7214 31.5255 59.6948 31.5255C62.5438 31.5255 64.6343 32.2778 65.9663 33.7825C67.2983 35.2748 67.9704 37.205 67.9828 39.573L62.1183 40.683C61.9949 39.647 61.7113 38.7898 61.2673 38.1115C60.8233 37.4208 60.1326 37.0755 59.1953 37.0755C58.4306 37.0755 57.7214 37.3468 57.0678 37.8895C56.4141 38.4322 55.8591 39.2585 55.4028 40.3685C54.9464 41.4662 54.6258 42.8722 54.4408 44.5865C54.2928 46.2762 54.3359 47.6698 54.5703 48.7675C54.8046 49.8652 55.1931 50.6792 55.7358 51.2095C56.2908 51.7398 56.9629 52.005 57.7523 52.005C58.8499 52.005 59.7009 51.6782 60.3053 51.0245C60.9219 50.3708 61.2858 49.5753 61.3968 48.638H67.2983C67.1009 50.5743 66.5829 52.2147 65.7443 53.559C64.9056 54.891 63.7709 55.9085 62.3403 56.6115C60.9219 57.3022 59.2261 57.6475 57.2528 57.6475Z" fill="#222222"/>
</svg>
