<svg width="34" height="34" viewBox="0 0 34 34" fill="none" xmlns="http://www.w3.org/2000/svg">
<path d="M22.9358 2.83337H11.0642C5.90749 2.83337 2.83333 5.90754 2.83333 11.0642V22.9217C2.83333 28.0925 5.90749 31.1667 11.0642 31.1667H22.9217C28.0783 31.1667 31.1525 28.0925 31.1525 22.9359V11.0642C31.1667 5.90754 28.0925 2.83337 22.9358 2.83337ZM14.3508 20.5417C14.7617 20.9525 14.7617 21.6325 14.3508 22.0434C14.1383 22.2559 13.8692 22.355 13.6 22.355C13.3308 22.355 13.0617 22.2559 12.8492 22.0434L9.32166 18.5159C8.48583 17.68 8.48583 16.3342 9.32166 15.4984L12.8492 11.9709C13.26 11.56 13.94 11.56 14.3508 11.9709C14.7617 12.3817 14.7617 13.0617 14.3508 13.4725L10.8233 17L14.3508 20.5417ZM24.6783 18.5017L21.1508 22.0292C20.9383 22.2417 20.6692 22.3409 20.4 22.3409C20.1308 22.3409 19.8617 22.2417 19.6492 22.0292C19.2383 21.6184 19.2383 20.9384 19.6492 20.5275L23.1767 17L19.6492 13.4584C19.2383 13.0475 19.2383 12.3675 19.6492 11.9567C20.06 11.5459 20.74 11.5459 21.1508 11.9567L24.6783 15.4842C25.5142 16.32 25.5142 17.68 24.6783 18.5017Z" fill="white"/>
</svg>
