<svg width="34" height="38" viewBox="0 0 34 38" fill="none" xmlns="http://www.w3.org/2000/svg">
<path d="M17.2347 14.2893C18.1744 15.942 19.4146 17.3512 20.8689 18.419C21.2455 18.6958 21.2455 19.3101 20.8689 19.5869C19.4146 20.6547 18.1744 22.0639 17.2347 23.7166C16.9912 24.1445 16.4505 24.1445 16.207 23.7166C15.2673 22.0639 14.0272 20.6547 12.5728 19.5869C12.1963 19.3101 12.1963 18.6958 12.5728 18.419C14.0272 17.3512 15.2673 15.942 16.207 14.2893C16.4505 13.8614 16.9912 13.8614 17.2347 14.2893ZM16.72 0L15.0204 8.99359C14.2552 13.0389 11.4743 16.1991 7.91438 17.0686L0 19L7.91438 20.9314C11.4743 21.8009 14.2552 24.9611 15.0204 29.0064L16.72 38L18.4196 29.0064C19.1848 24.9611 21.9657 21.8009 25.5257 20.9314L33.44 19L25.5257 17.0686C21.9657 16.1991 19.1848 13.0389 18.4196 8.99359L16.72 0Z" fill="#222222"/>
</svg>
