<svg width="34" height="34" viewBox="0 0 34 34" fill="none" xmlns="http://www.w3.org/2000/svg">
<path d="M21.8026 7.3807L23.8001 11.3757C24.0692 11.9282 24.7917 12.4524 25.4009 12.5657L29.0134 13.1607C31.3226 13.5432 31.8609 15.2149 30.2034 16.8865L27.3842 19.7057C26.9167 20.1732 26.6476 21.094 26.8034 21.7599L27.6109 25.2449C28.2484 27.9932 26.7751 29.0699 24.3526 27.6249L20.9667 25.6132C20.3576 25.2449 19.3376 25.2449 18.7284 25.6132L15.3426 27.6249C12.9201 29.0557 11.4467 27.9932 12.0842 25.2449L12.8917 21.7599C13.0192 21.0799 12.7501 20.159 12.2826 19.6915L9.46341 16.8724C7.80591 15.2149 8.34425 13.5432 10.6534 13.1465L14.2659 12.5515C14.8751 12.4524 15.5976 11.914 15.8667 11.3615L17.8642 7.36653C18.9551 5.2132 20.7117 5.2132 21.8026 7.3807Z" fill="white"/>
<path d="M11.3333 8.14581H2.83334C2.25251 8.14581 1.77084 7.66415 1.77084 7.08331C1.77084 6.50248 2.25251 6.02081 2.83334 6.02081H11.3333C11.9142 6.02081 12.3958 6.50248 12.3958 7.08331C12.3958 7.66415 11.9142 8.14581 11.3333 8.14581Z" fill="white"/>
<path d="M7.08334 27.9792H2.83334C2.25251 27.9792 1.77084 27.4975 1.77084 26.9167C1.77084 26.3359 2.25251 25.8542 2.83334 25.8542H7.08334C7.66418 25.8542 8.14584 26.3359 8.14584 26.9167C8.14584 27.4975 7.66418 27.9792 7.08334 27.9792Z" fill="white"/>
<path d="M4.25001 18.0625H2.83334C2.25251 18.0625 1.77084 17.5808 1.77084 17C1.77084 16.4192 2.25251 15.9375 2.83334 15.9375H4.25001C4.83084 15.9375 5.31251 16.4192 5.31251 17C5.31251 17.5808 4.83084 18.0625 4.25001 18.0625Z" fill="white"/>
</svg>
